<svg xmlns="http://www.w3.org/2000/svg" viewBox="0 0 74.653 82.143" width="74.65" height="82.14">
    <path fill="#002f35" d="M3.3 26.55L0 23.25v-7.02L16.23 0h7.03l3.3 3.3v7.02L10.31 26.55zM48.1 3.29L51.4 0h7.02l16.23 16.23v7.03l-3.29 3.3h-7.03L48.1 10.31z"></path>
    <path fill="#fff" d="M18.5 6.28a1.6 1.6 0 1 1 3.19 0 1.6 1.6 0 0 1-3.2 0zm48.18 14.27a1.6 1.6 0 1 1 3.2 0 1.6 1.6 0 0 1-3.2 0z"></path>
    <path fill="#ffce32" d="M53.78 66.99l4.18-2.8 5.9 8.8-4.17 2.8zM38.92 82.14l.01-10.6h5.04l-.01 10.6zm-20.15-9.15l5.91-8.8 4.18 2.8-5.91 8.8z"></path>
    <path fill="#23e5db" d="M63.02 38.66l.01-.01L36.29 11.9a5.49 5.49 0 0 0-7.77 0L12.88 27.65a5.49 5.49 0 0 0 .01 7.75l2.62 2.62 23.86 23.86v-.01a4.14 4.14 0 0 0 6.02-5.7 4.14 4.14 0 0 0 5.8-5.89 4.14 4.14 0 0 0 5.9-5.8l.02-.02a4.14 4.14 0 0 0 5.9-5.79z"></path>
    <path fill="#00a49f" d="M63.52 28.57L46.29 11.45a5.33 5.33 0 0 0-7.5.17L25.61 24.78a4.14 4.14 0 1 0 5.6 6.1h.01l8.12-8.12a5.51 5.51 0 0 1 7.78-.01L61.3 36.9l2.22-2.32a4.26 4.26 0 0 0 0-6.02z"></path>
</svg>